<svg id="Layer_1" xmlns="http://www.w3.org/2000/svg" viewBox="0 0 1200 289.01">
  <defs>
    <style>
      .cls-1{fill:#000;font-family:Montserrat, sans-serif;font-size:110px;font-weight:700;}
      .cls-subtitle{fill:#000;font-family:Montserrat, sans-serif;font-size:26px;font-weight:400;letter-spacing:2px;}
      .cls-2{stroke-width:7.79px;}
      .cls-2,.cls-3,.cls-4{fill:none;stroke:#000;stroke-linecap:round;stroke-miterlimit:10;}
      .cls-3{stroke-width:12px;}
      .cls-4{stroke-width:14px;}
    </style>
  </defs>

  <!-- Brain/Icicle graphic - unchanged -->
  <path class="cls-4" d="m41.75,136.42c-2.14-4.8-3.33-10.11-3.33-15.7,0-21.32,17.28-38.6,38.6-38.6,16.91,0,30.5,15.82,36.5,26.01,4.31,7.33,13.78,6.69,16.07,3.46"/>
  <path class="cls-4" d="m81.37,108.6c6.28,4.98,10.31,12.68,10.31,21.32,0,1.58-.13,3.13-.39,4.64"/>
  <path class="cls-4" d="m236.01,108.6c-6.28,4.98-10.31,12.68-10.31,21.32,0,1.58.13,3.13.39,4.64"/>
  <path class="cls-4" d="m62.98,82.12c-1.66-4.43-2.57-9.23-2.57-14.24,0-22.39,18.15-40.55,40.55-40.55,14.67,0,27.52,7.79,34.64,19.46"/>
  <path class="cls-4" d="m120.34,32.42c5-14.78,18.99-25.42,35.45-25.42,20.67,0,37.42,16.75,37.42,37.42,0,1.29-.07,2.57-.19,3.83,0,0-8.11,7.86-8.8,10.49s-.28,12.45-.28,12.45"/>
  <path class="cls-4" d="m192.23,34.42c5.76-3.61,12.57-5.7,19.87-5.7,20.67,0,37.42,16.75,37.42,37.42,0,6.14-1.48,11.93-4.10,17.04"/>
  <path class="cls-4" d="m200.35,102.63c6.15-12.25,18.82-20.65,33.46-20.65,20.67,0,37.42,16.75,37.42,37.42,0,5.75-1.3,11.2-3.61,16.06"/>
  <path class="cls-4" d="m128.23,67.5c21.77,1.94,38.83,20.22,38.83,42.49,0,10.16-3.55,19.49-9.48,26.81"/>
  <path class="cls-4" d="m111.05,65.81c-1.56,7.86-6.58,14.96-14.26,18.9"/>
  <path class="cls-4" d="m159.4,41.25c1.65,10.13-1.18,20.89-8.63,29.06"/>
  <path class="cls-4" d="m208.43,59.43s-4.29,1.25-8.3-1.8-7.11-9.39-7.11-9.39"/>
  <line class="cls-3" x1="6" y1="136.44" x2="307.76" y2="136.44"/>
  <polyline class="cls-2" points="65.76 196.2 65.76 176.65 91.95 162.63 91.95 137.18"/>
  <polyline class="cls-2" points="251.32 196.2 251.32 176.65 225.13 162.63 225.13 137.18"/>
  <polyline class="cls-2" points="108.18 221.65 108.18 204.31 125.34 187.16 125.34 138.65"/>
  <polyline class="cls-2" points="207.23 221.65 207.23 204.31 190.08 187.16 190.08 138.65"/>
  <line class="cls-2" x1="157.99" y1="137.91" x2="157.99" y2="236.41"/>
  <circle class="cls-2" cx="66.68" cy="211.14" r="14.57"/>
  <circle class="cls-2" cx="108.37" cy="236.59" r="14.57"/>
  <circle class="cls-2" cx="158.17" cy="256.14" r="14.57"/>
  <circle class="cls-2" cx="207.6" cy="237.33" r="14.57"/>
  <circle class="cls-2" cx="250.4" cy="211.14" r="14.57"/>

  <!-- Updated text -->
  <text class="cls-1" transform="translate(350, 150)">
    <tspan x="0" y="0">ICICLE Insights</tspan>
  </text>
  <text class="cls-subtitle" transform="translate(350, 185)">
    <tspan x="0" y="0">Metrics Collection Platform</tspan>
  </text>
</svg>
